<svg width="107" height="40" viewBox="0 0 107 40" fill="none" xmlns="http://www.w3.org/2000/svg">
<g clip-path="url(#clip0_259_687)">
<mask id="mask0_259_687" style="mask-type:luminance" maskUnits="userSpaceOnUse" x="0" y="0" width="107" height="40">
<path d="M0 0H107V40H0V0Z" fill="white"/>
</mask>
<g mask="url(#mask0_259_687)">
<path d="M0 38.439V0.0482657L7.42639 0.0461993V14.6635L21.5944 0H31.5851L16.7905 15.2908L32.8172 38.439H23.3115L11.4477 20.6053L7.42419 24.7323V38.439H0ZM33.1628 38.439V11.0235H40.3789V13.9607C40.3789 13.9607 42.5124 9.90509 48.4964 9.90509C58.2039 9.90509 58.2788 19.8185 58.2788 19.8185V38.4348H50.5777V21.1299C50.5777 21.1299 50.5736 16.4301 45.8592 16.6189C40.587 16.8288 40.4476 23.123 40.4476 23.123V38.439H33.1628ZM88.715 24.9714V24.9399C88.715 18.4317 84.5688 9.90303 74.2326 9.90303C63.8966 9.90303 59.6672 18.4001 59.6672 24.9399V24.9714H67.2288V24.9399C67.2288 17.8714 71.0794 15.7126 74.2306 15.7126C77.3818 15.7126 81.1783 17.7708 81.1783 24.9399V24.9714H88.715Z" fill="#DC3A0F"/>
<path d="M88.715 24.9316V24.961C88.715 31.4693 84.5689 39.998 74.2327 39.998C63.8966 39.998 59.6672 31.5007 59.6672 24.961V24.9316H67.2288V24.961C67.2288 32.0294 71.0794 34.1884 74.2306 34.1884C77.3818 34.1884 81.1783 32.1301 81.1783 24.961V24.9316H88.715ZM89.9806 0.0483398H97.4735V38.439H89.9847L89.9806 0.0483398ZM99.482 0.0483398L107 0.0524727V38.4433H99.482V0.0483398Z" fill="#DC3A0F"/>
</g>
</g>
<defs>
<clipPath id="clip0_259_687">
<rect width="107" height="40" fill="white"/>
</clipPath>
</defs>
</svg>
