<svg width="199" height="40" viewBox="0 0 199 40" fill="none" xmlns="http://www.w3.org/2000/svg">
<g clip-path="url(#clip0_2_2463)">
<path d="M19.9 0.399902C9.10002 0.399902 0.400024 9.1999 0.400024 19.9999C0.400024 30.7999 9.20002 39.5999 20 39.5999C30.8 39.5999 39.6 30.7999 39.6 19.9999C39.6 9.1999 30.7 0.399902 19.9 0.399902ZM30.7 30.1999C30.7 30.1999 26.5 28.6999 19.9 28.6999C13.3 28.6999 9.10003 30.1999 9.10003 30.1999V9.7999H9.40002C9.40002 9.7999 11.2 27.7999 19.9 27.7999C28.6 27.7999 30.4 9.7999 30.4 9.7999H30.7V30.1999ZM81 21.2999H76C76 19.0999 77 17.8999 78.5 17.8999C80.1 17.8999 81 19.1999 81 21.2999ZM120.5 22.8999L120.4 25.8999C119.9 26.7999 118.9 27.2999 117.9 27.2999C116.7 27.2999 116 26.5999 116 25.2999C116 24.4999 116.2 23.9999 116.7 23.5999C117.2 23.0999 118.2 22.7999 119.9 22.7999C120.1 22.8999 120.3 22.8999 120.5 22.8999ZM186.5 21.2999H181.6C181.7 19.0999 182.5 17.8999 184.1 17.8999C185.6 17.8999 186.5 19.1999 186.5 21.2999ZM70.8 28.8999V11.5999H68V18.5999H61.5V11.5999H58.7V28.9999H61.5V20.8999H68V28.9999L70.8 28.8999ZM83.9 23.1999V22.6999C83.9 19.8999 83.3 18.2999 82.3 17.2999C81.4 16.3999 80.1 15.8999 78.7 15.8999C77 15.8999 75.7 16.4999 74.7 17.5999C73.7 18.6999 73.1 20.2999 73.1 22.4999C73.1 26.5999 75.4 29.1999 79.1 29.1999C80.9 29.1999 82.5 28.5999 83.8 27.4999L82.7 25.8999C81.7 26.6999 80.6 27.0999 79.4 27.0999C78.2 27.0999 77.2 26.5999 76.6 25.7999C76.2 25.1999 76.1 24.2999 76.1 23.3999V23.1999H83.9ZM93 16.0999C92.7 15.9999 92.4 15.8999 91.9 15.8999C90.5 15.8999 89.5 16.6999 88.6 17.8999V17.6999C88.6 16.8999 88.4 16.4999 88.1 15.9999L85.5 16.6999C85.8 17.4999 85.9 18.3999 85.9 19.8999V28.9999H88.7V20.4999C88.8 19.7999 89 19.4999 89.5 19.0999C90 18.5999 90.6 18.4999 91.2 18.4999C91.5 18.4999 91.7 18.5999 92 18.6999L93 16.0999ZM110.8 28.8999V19.5999C110.8 18.1999 110.5 17.2999 109.8 16.6999C109.3 16.1999 108.3 15.8999 107.4 15.8999C106 15.8999 104.5 16.5999 103.4 17.7999C102.8 16.5999 101.7 15.8999 100.3 15.8999C99.1 15.8999 97.7 16.5999 96.8 17.4999C96.7 16.8999 96.5 16.2999 96.3 15.8999L93.8 16.4999C94.2 17.2999 94.3 17.7999 94.3 19.5999V28.7999H97V19.3999C98.1 18.4999 99 18.0999 99.8 18.0999C100.9 18.0999 101.3 18.6999 101.3 20.0999V28.7999H104V19.5999C105.1 18.4999 106.1 17.9999 106.9 17.9999C107.9 17.9999 108.3 18.4999 108.3 19.7999V28.6999H110.8V28.8999ZM124.3 27.6999C123.4 27.0999 123.1 26.5999 123.1 25.0999V24.6999L123.2 20.8999V20.0999C123.2 18.7999 123.1 18.3999 123 17.8999C122.5 16.4999 121.1 15.7999 119.1 15.7999C117.9 15.7999 116.8 15.9999 115.6 16.4999C114.9 16.7999 114.2 17.0999 113.5 17.4999L114.7 19.3999C115.2 18.9999 115.6 18.7999 116.3 18.4999C117.2 18.0999 118 17.8999 118.7 17.8999C119.5 17.8999 119.9 18.0999 120.2 18.4999C120.5 18.8999 120.6 19.2999 120.6 20.1999V21.0999H119.7C115.4 21.0999 113.1 22.5999 113.1 25.5999C113.1 26.5999 113.4 27.6999 114.1 28.2999C114.9 28.9999 115.8 29.2999 117.4 29.2999C118.5 29.2999 119.4 28.9999 120.2 28.4999C120.5 28.2999 120.6 28.0999 121 27.6999C121.3 28.4999 122 29.0999 122.8 29.3999L124.3 27.6999ZM136.6 28.8999V19.4999C136.6 17.0999 135.2 15.9999 133.1 15.9999C131.7 15.9999 130.6 16.4999 129.1 17.6999C129.1 17.0999 128.9 16.4999 128.6 15.9999L126.1 16.6999C126.5 17.5999 126.5 18.1999 126.5 19.6999V29.0999H129.2V19.8999C130.1 18.9999 131.3 18.3999 132.2 18.3999C133.3 18.3999 133.7 18.8999 133.7 20.6999V29.0999H136.6V28.8999ZM157.8 28.8999L156.3 11.4999H152.4L148.9 24.2999L145.4 11.5999H141.4L139.7 28.9999H142.3L143.5 14.3999L147.6 28.9999H149.7L153.8 14.6999L155 28.9999H157.8V28.8999ZM163.4 28.8999V15.8999L160.6 16.2999V28.7999H163.4V28.8999ZM171.2 28.8999L170.7 27.2999H170.4C169.9 27.2999 169.5 26.9999 169.5 26.0999V14.0999C169.5 12.4999 169.5 11.2999 169.3 10.4999L166.5 11.0999C166.7 12.0999 166.8 12.9999 166.8 14.7999V26.2999C166.8 28.1999 167.9 29.2999 169.5 29.2999C170.2 29.1999 170.7 29.0999 171.2 28.8999ZM163.9 12.4999C163.9 11.4999 163.1 10.6999 162 10.6999C161 10.6999 160.1 11.4999 160.1 12.4999C160.1 13.4999 161 14.2999 161.9 14.2999C163.1 14.2999 163.9 13.4999 163.9 12.4999ZM177.6 28.8999L177.1 27.2999C176.7 27.3999 176.4 27.2999 176.2 27.0999C176 26.7999 175.9 26.2999 175.9 25.0999V14.0999C175.9 12.4999 175.9 11.2999 175.7 10.4999L172.9 11.0999C173.1 12.0999 173.2 12.9999 173.2 14.7999V25.7999C173.2 27.1999 173.5 27.8999 173.8 28.3999C174.2 28.9999 175 29.2999 175.9 29.2999C176.5 29.1999 177 29.0999 177.6 28.8999ZM189.4 23.1999V22.6999C189.4 19.8999 188.8 18.2999 187.8 17.2999C186.9 16.3999 185.6 15.8999 184.1 15.8999C182.5 15.8999 181.2 16.4999 180.1 17.5999C179.1 18.6999 178.5 20.2999 178.5 22.4999C178.5 26.5999 180.8 29.1999 184.5 29.1999C186.2 29.1999 187.9 28.5999 189.2 27.4999L188.1 25.8999C187.1 26.6999 186 27.0999 184.8 27.0999C183.6 27.0999 182.6 26.5999 182 25.7999C181.6 25.1999 181.4 24.2999 181.4 23.3999V23.1999H189.4ZM198.6 16.0999C198.3 15.9999 198 15.8999 197.5 15.8999C196.1 15.8999 195 16.6999 194.2 17.8999V17.6999C194.2 16.8999 194 16.4999 193.7 15.9999L191.2 16.6999C191.5 17.4999 191.6 18.3999 191.6 19.8999V28.9999H194.4V20.4999C194.5 19.7999 194.7 19.4999 195.2 19.0999C195.7 18.5999 196.3 18.4999 196.9 18.4999C197.2 18.4999 197.4 18.5999 197.7 18.6999L198.6 16.0999Z" fill="#E22D00"/>
</g>
<defs>
<clipPath id="clip0_2_2463">
<rect width="199" height="40" fill="white"/>
</clipPath>
</defs>
</svg>
