<svg xmlns="http://www.w3.org/2000/svg" version="1.1" xmlns:xlink="http://www.w3.org/1999/xlink" width="1281" height="1281"><svg xmlns="http://www.w3.org/2000/svg" version="1.1" xmlns:xlink="http://www.w3.org/1999/xlink" width="1281" height="1281"><svg width="1281" height="1281" viewBox="0 0 1281 1281" fill="none" xmlns="http://www.w3.org/2000/svg">
<g clip-path="url(#clip0_3_299)">
<path d="M640.17 1280.34C993.726 1280.34 1280.34 993.726 1280.34 640.17C1280.34 286.614 993.726 0 640.17 0C286.614 0 0 286.614 0 640.17C0 993.726 286.614 1280.34 640.17 1280.34Z" fill="#262D33"></path>
<path d="M1044.1 912.62L1040.51 903.49C935.34 636.31 809.19 316.31 805.39 309.07C799.42 297.69 787.63 290.63 774.63 290.63C763.86 290.63 753.88 295.44 747.26 303.83C744.1 307.84 673.57 414.07 640.24 464.33C606.96 414.16 536.24 307.63 533.08 303.62C526.46 295.23 516.48 290.42 505.71 290.42C492.71 290.42 480.92 297.48 474.95 308.86C471.16 316.1 345 636.1 239.83 903.28L236.24 912.41C234.27 916.77 233.27 921.4 233.27 926.21C233.27 945 248.8 960.28 267.88 960.28C279.06 960.28 289.55 954.96 296.04 946.02L640.08 528.67L984.3 946.23C990.79 955.17 1001.27 960.49 1012.46 960.49C1031.54 960.49 1047.07 945.21 1047.07 926.42C1047.07 921.61 1046.07 916.97 1044.1 912.62ZM512.19 323.75C512.19 322.79 512.97 322.01 513.93 322.01C514.52 322.01 515.04 322.3 515.36 322.75C528.26 341.76 584.96 427.06 625.35 487.94C625.35 487.94 625.63 488.52 625.63 488.89C625.63 489.85 624.85 490.63 623.89 490.63L513.92 490.34C512.96 490.34 512.18 489.56 512.18 488.6H512.21V323.75H512.19ZM264.88 917.33C264.58 917.84 264.02 918.19 263.38 918.19C262.42 918.19 261.64 917.41 261.64 916.45C261.64 916.31 261.66 916.18 261.69 916.05C393.63 580.85 480.23 359.86 495.19 323.19L495.27 322.98C495.54 322.37 496.15 321.95 496.86 321.95C497.82 321.95 498.6 322.73 498.6 323.69V494.99C498.6 495.73 498.51 496.13 498.33 496.49C498.33 496.49 264.92 917.27 264.88 917.33ZM625.19 507.14L279.31 926.28C278.99 926.61 278.55 926.82 278.05 926.82C277.09 926.82 276.31 926.04 276.31 925.08C276.31 924.84 276.36 924.61 276.45 924.4L509.17 505H509.18C509.44 504.36 510.06 503.92 510.79 503.92L623.89 504.2V504.23C624.85 504.23 625.63 505.01 625.63 505.97C625.63 506.41 625.46 506.82 625.19 507.12V507.14ZM654.99 488.15C695.37 427.27 752.08 341.97 764.98 322.96C765.3 322.51 765.82 322.22 766.41 322.22C767.37 322.22 768.15 323 768.15 323.96V488.81H768.17C768.17 489.77 767.39 490.55 766.43 490.55L656.46 490.83C655.5 490.83 654.72 490.05 654.72 489.09C654.72 488.73 655 488.14 655 488.14L654.99 488.15ZM1002.28 927.04C1001.79 927.04 1001.34 926.83 1001.02 926.5L655.14 507.36C654.87 507.04 654.7 506.64 654.7 506.19C654.7 505.23 655.48 504.45 656.44 504.45V504.42L769.54 504.13C770.26 504.14 770.88 504.58 771.15 505.21H771.16L1003.88 924.62C1003.97 924.83 1004.02 925.06 1004.02 925.3C1004.02 926.26 1003.24 927.04 1002.28 927.04ZM1016.95 918.41C1016.31 918.41 1015.75 918.07 1015.45 917.55C1015.41 917.48 782 496.71 782 496.71C781.82 496.35 781.72 495.95 781.72 495.21V323.91C781.72 322.95 782.5 322.17 783.46 322.17C784.17 322.17 784.78 322.59 785.05 323.2L785.13 323.41C800.09 360.09 886.69 581.07 1018.63 916.27C1018.66 916.4 1018.68 916.53 1018.68 916.67C1018.68 917.63 1017.9 918.41 1016.94 918.41H1016.95Z" fill="white"></path>
</g>
<defs>
<clipPath id="clip0_3_299">
<rect width="1280.34" height="1280.34" fill="white"></rect>
</clipPath>
</defs>
</svg></svg><style>@media (prefers-color-scheme: light) { :root { filter: none; } }
@media (prefers-color-scheme: dark) { :root { filter: none; } }
</style></svg>